<svg width="286" height="284" xmlns="http://www.w3.org/2000/svg" xmlns:xlink="http://www.w3.org/1999/xlink" overflow="hidden"><defs><clipPath id="clip0"><rect x="533" y="96" width="286" height="284"/></clipPath></defs><g clip-path="url(#clip0)" transform="translate(-533 -96)"><path d="M676.063 104.099C696.649 104.099 717.777 108.418 735.655 118.137 758.95 129.475 782.245 151.612 794.705 174.829 815.833 212.084 815.291 268.236 793.08 304.951 767.076 347.605 724.278 371.901 676.063 372.441 676.063 380 676.063 380 676.063 380 678.772 380 681.481 380 684.731 379.46 726.445 377.3 763.826 357.323 790.371 322.228 807.707 300.631 817.458 270.395 818 240.16 818 232.601 818 232.601 818 232.601 817.458 212.624 813.124 193.726 804.456 177.529 789.288 144.053 754.616 113.817 720.486 103.559 705.859 98.6996 690.69 96 676.063 96L676.063 104.099ZM654.935 370.821C605.636 364.882 557.421 321.688 546.045 273.635 532.501 221.802 549.295 169.43 590.468 134.335 613.221 114.897 644.642 104.639 676.063 104.099 676.063 96 676.063 96 676.063 96 635.432 96 596.427 113.817 568.798 145.133 539.002 179.148 526 225.582 537.377 272.015 547.128 321.688 595.885 368.122 645.725 376.76 654.935 378.92 665.228 379.46 676.063 380 676.063 372.441 676.063 372.441 676.063 372.441 669.02 372.441 661.978 371.901 654.935 370.821Z" fill="#FFFFFF" fill-rule="evenodd"/><path d="M658.8 113.938C659.9 113.938 660.45 113.375 661 113.938 659.9 115.625 657.7 116.188 655.5 117.312 656.05 116.75 656.05 116.75 656.05 116.188 655.5 115.625 655.5 115.625 655.5 115.625 654.4 116.75 652.75 118.438 651.1 119 651.65 117.312 653.3 116.75 653.3 115.062 652.75 113.375 650 113.938 651.1 112.25 655.5 110 654.95 118.438 658.8 113.938Z" fill="#FFFFFF" fill-rule="evenodd"/><path d="M713 113.571C712.435 117 706.783 116.429 709.609 119.286 708.478 119.857 707.348 120.429 706.217 120.429 706.783 120.429 707.348 119.286 707.913 118.714 707.348 117 709.043 116.429 710.174 115.286 709.609 115.286 709.609 115.286 709.609 115.286 706.217 115.857 704.522 121 700 118.714 703.957 115.857 707.913 114.714 711.87 113L713 113.571Z" fill="#FFFFFF" fill-rule="evenodd"/><path d="M659.45 120.636C660 122.273 657.8 121.182 656.7 122.273 656.15 121.182 657.8 119.545 655.6 120.091 655.05 123.364 651.75 123.364 649.55 125 649 125 649 125 649 125 649 123.364 651.2 122.273 652.3 120.636 653.4 122.273 655.6 120.091 656.7 119 657.8 119 658.9 119.545 659.45 120.636Z" fill="#FFFFFF" fill-rule="evenodd"/><path d="M709 122.043C707.947 125.174 706.368 128.826 705.842 132.478 705.316 132.478 704.263 133 704.263 132.478 703.737 131.435 705.842 130.913 705.842 129.87 705.316 127.261 708.474 124.652 706.895 122.043 705.842 122.565 704.789 122.565 704.263 123.609 704.263 125.174 704.263 126.217 705.316 126.739 703.737 128.304 703.737 130.913 702.158 131.957 701.632 130.391 703.211 129.348 701.632 127.783 701.632 127.261 703.211 126.217 702.158 125.174 700.053 126.217 701.105 128.304 700.053 129.87 699 130.391 699.526 128.826 699 127.783 699.526 126.217 700.053 125.174 701.105 124.13 702.684 124.13 704.263 121.522 706.368 121.522 707.421 121.522 708.474 121 709 122.043Z" fill="#FFFFFF" fill-rule="evenodd"/><path d="M697.5 128.444C696.5 129 696 127.333 696 126.778 696 124 696 124 696 124 697 124.556 698 126.222 697.5 128.444Z" fill="#FFFFFF" fill-rule="evenodd"/><path d="M657.273 126.636C657.818 127.727 656.727 128.273 656.182 128.818 658.909 131.545 662.727 133.727 666 134.818 663.273 134.818 659.455 137 657.273 133.182 657.273 132.091 656.182 131 655.091 129.909 653.455 132.636 651.273 135.909 648 137 650.182 134.818 652.909 132.091 654 128.818 650.727 125.545 650.727 125.545 650.727 125.545 652.364 125.545 652.909 127.182 654.545 127.182 655.091 125 655.091 125 655.091 125 656.727 125 657.273 125.545 657.273 126.636Z" fill="#FFFFFF" fill-rule="evenodd"/><path d="M697.333 131C696 131 696.667 129 696.667 129 698 129.5 697.333 130.5 697.333 131Z" fill="#FFFFFF" fill-rule="evenodd"/><path d="M709 136.867C707.933 137.933 705.8 137.933 704.2 139 700.467 136.867 697.8 133.133 693.533 131.533 693 131 693 131 693 131 698.867 132.067 703.133 137.933 709 136.867Z" fill="#FFFFFF" fill-rule="evenodd"/><path d="M609 133.111C609 134.778 607.833 135.889 606.083 137 606.667 136.444 606.083 135.889 606.667 135.333 606.083 133.667 603.75 134.778 602 134.222 602.583 133.667 604.333 132.556 606.083 132.556 607.25 132 607.833 132.556 609 133.111Z" fill="#FFFFFF" fill-rule="evenodd"/><path d="M612 134C610.857 136.812 609.143 139.062 606.857 141.875 605.714 141.875 605.143 143 604 142.438 606.857 140.188 609.143 136.812 610.286 134L612 134Z" fill="#FFFFFF" fill-rule="evenodd"/><path d="M755.463 143.158C754.39 144.211 752.781 145.263 752.244 146.316 753.317 147.368 755.463 146.316 756 147.895 752.781 148.947 747.951 146.842 746.878 151.579 749.024 153.684 749.561 157.895 753.317 157.895 751.707 157.895 749.024 160 747.951 157.368 747.415 155.263 747.415 153.158 745.805 151.053 742.585 154.211 738.293 153.684 734 154.211 738.293 152.632 743.122 151.579 746.878 147.895 746.341 146.842 745.268 145.789 745.268 144.211 746.341 145.263 747.951 145.789 749.561 146.316 751.707 144.737 753.854 142.105 754.927 140 756 140 756 142.105 755.463 143.158Z" fill="#FFFFFF" fill-rule="evenodd"/><path d="M619.444 144.5C619.444 145 620 145.5 618.889 146 617.222 146 616.667 144.5 615 144.5 616.111 143 618.333 143 619.444 144.5Z" fill="#FFFFFF" fill-rule="evenodd"/><path d="M611.5 147.419C611.5 146.871 611.5 146.323 611.5 145.774 611.5 153.452 611.5 153.452 611.5 153.452 611.5 153.452 611.5 153.452 612 152.903 612 151.258 612.5 149.065 613.5 147.419 614.5 147.968 613 149.065 613.5 149.613 615.5 150.71 615.5 150.71 615.5 150.71 615.5 150.161 616 150.161 616 149.613 616 149.613 616 149.613 616 149.613 615.5 147.968 614 146.871 613 145.226 613 143.581 615 143.032 614 141.387 613.5 141.387 613.5 141.935 613 141.935 612 140.29 613 138.645 613.5 137 612.5 137 612 137.548 611.5 138.097 611.5 144.677 611.5 144.677 611.5 144.677 611.5 145.774 612 146.323 611.5 147.419ZM611.5 145.774C611 145.226 610.5 144.677 611 143.581 611 144.129 611.5 144.677 611.5 144.677 611.5 138.097 611.5 138.097 611.5 138.097 610 139.742 610.5 143.032 608 143.581 608 144.677 609 146.323 609.5 147.419 613 148.516 609.5 151.258 609.5 153.452 610 154 611 154 611.5 153.452L611.5 145.774Z" fill="#FFFFFF" fill-rule="evenodd"/><path d="M738.518 302.103C722.257 318.783 698.951 326.853 676.187 327.391 676.187 332.772 676.187 332.772 676.187 332.772 678.355 332.234 679.439 333.848 678.897 336 680.523 335.462 682.149 336 683.233 335.462 683.233 334.386 682.691 333.848 682.691 332.772 683.775 331.696 685.401 332.772 686.485 331.696 688.111 332.772 686.485 334.924 688.111 335.462 689.195 334.386 690.821 335.462 691.363 334.386 691.363 331.696 691.363 331.696 691.363 331.696 691.905 330.082 694.073 331.696 694.615 330.62 696.241 331.158 695.157 332.772 696.241 333.848 697.867 334.386 698.951 333.31 700.035 332.772 699.493 330.082 699.493 330.082 699.493 330.082 700.577 329.005 701.661 329.543 702.745 328.467 703.829 329.543 703.829 330.62 704.371 331.696 705.997 331.158 707.623 331.158 708.707 330.082 707.081 327.929 707.081 327.929 707.081 327.929 708.165 326.853 709.249 326.315 710.875 325.777 711.959 326.853 711.959 327.929 712.501 329.005 713.585 328.467 715.211 328.467 716.295 327.391 715.211 324.163 715.211 324.163 715.211 324.163 716.295 323.625 717.379 323.087 718.463 322.549 719.547 323.087 719.547 324.701 720.089 325.239 721.715 325.239 722.799 324.163 723.883 323.625 723.883 322.549 722.799 321.473 722.257 320.935 723.883 319.859 724.967 318.783 726.052 318.783 728.219 321.473 728.219 321.473 728.219 321.473 731.472 319.321 731.472 319.321 731.472 319.321 729.846 316.092 729.846 316.092 729.846 316.092 732.556 313.94 732.556 313.94 732.556 313.94 733.098 315.016 734.724 315.554 734.724 316.63 737.976 314.478 737.976 314.478 737.976 314.478 738.518 312.864 736.892 312.326 736.35 311.25 737.434 310.712 738.518 309.636 739.602 308.56 740.686 309.098 740.686 311.25 742.312 311.25 744.48 309.636 745.022 306.946 742.854 305.332 745.564 303.179 745.564 303.179 745.564 303.179 747.19 305.332 747.19 305.332 747.19 305.332 749.358 305.332 749.358 303.179 750.442 302.103 748.274 299.413 748.274 299.413 748.274 299.413 750.984 296.723 750.984 296.723 750.984 296.723 752.61 298.337 752.61 298.337 752.61 298.337 753.694 299.413 754.236 297.799 754.778 297.261 757.488 295.109 753.694 294.571 753.694 292.957 753.694 292.957 753.694 292.957 753.694 292.957 754.778 290.266 756.404 290.266 758.572 291.342 759.114 290.266 760.74 289.728 760.74 288.652 758.03 286.5 758.03 286.5 758.03 286.5 759.656 283.272 759.656 283.272 759.656 283.272 762.908 284.348 762.908 284.348 762.908 284.348 763.992 283.272 764.534 281.658 764.534 280.582 763.992 280.582 763.45 280.043 762.908 280.043 760.198 278.967 762.908 276.815 763.992 275.739 766.702 276.815 766.702 276.815 766.702 276.815 767.786 275.739 767.786 274.663 768.328 273.049 765.076 271.435 765.076 271.435 765.076 271.435 765.076 270.359 766.16 270.359 765.618 269.283 766.16 266.592 768.328 268.745 769.954 268.745 771.038 264.978 771.038 264.978 771.038 264.978 770.496 263.902 767.786 264.978 767.786 262.826 767.786 260.674 769.954 259.598 772.122 260.674 773.206 259.598 772.122 257.984 773.206 256.908 772.122 255.293 768.87 256.908 769.954 254.217 769.412 250.989 772.122 252.603 773.748 252.065 773.748 251.527 773.748 251.527 773.748 251.527 777 246.685 770.496 249.375 771.038 245.609 769.954 242.918 773.206 243.995 774.832 243.995 774.832 242.38 774.832 240.766 774.29 239.152 773.748 239.152 773.748 239.69 773.748 239.69 773.206 239.152 773.206 239.152 773.206 239.152 772.664 239.69 772.664 239.69 772.664 239.69 772.122 239.69 772.122 239.152 771.58 239.152 771.038 236.462 772.122 234.848 774.832 234.848 774.832 233.772 774.832 232.158 774.29 231.082 773.748 231.082 772.664 230.543 772.122 231.62 770.496 230.543 771.58 228.929 770.496 227.853 771.038 226.777 772.664 227.315 773.748 226.777 774.832 225.701 773.748 224.087 773.748 222.473 772.664 222.473 771.58 223.011 770.496 223.011 768.87 222.473 770.496 220.321 769.412 219.245 769.954 217.63 772.122 219.245 772.664 218.168 773.206 216.554 772.122 215.478 772.122 214.402 768.87 214.402 768.87 214.402 768.87 214.402 767.244 211.174 767.244 211.174 767.244 211.174 770.496 210.098 770.496 210.098 770.496 210.098 769.954 208.484 769.954 206.87 768.87 205.793 766.702 206.87 766.702 206.87 766.702 206.87 766.16 206.87 766.16 205.793 765.618 205.255 763.992 203.103 766.16 202.565 767.786 202.027 767.244 199.337 767.244 199.337 767.244 199.337 766.702 197.185 764.534 199.337 762.908 199.337 762.366 198.261 761.824 197.185 761.282 196.109 762.366 195.033 763.45 195.033 764.534 194.495 763.992 192.88 762.908 191.804 762.366 190.19 759.656 191.804 759.656 191.804 759.656 191.804 758.572 190.728 757.488 189.652 757.488 188.576 760.198 186.424 760.198 186.424 760.198 186.424 758.03 183.196 758.03 183.196 758.03 183.196 754.778 184.81 754.778 184.81 754.778 184.81 753.694 183.734 753.152 182.658 753.152 181.582 753.694 181.043 754.236 180.505 754.778 179.967 755.862 178.353 753.152 177.815 753.152 176.201 752.068 176.201 751.526 177.277 750.442 177.815 749.358 177.815 748.274 176.201 747.19 175.125 749.9 172.973 749.9 172.973 749.9 172.973 747.19 169.745 747.19 169.745 747.19 169.745 746.106 169.745 745.564 171.359 744.48 171.897 741.77 169.207 741.77 169.207 741.77 169.207 743.938 167.054 743.938 167.054 743.938 167.054 744.48 165.978 742.854 165.978 742.854 165.44 741.228 162.75 739.602 165.44 738.518 166.516 735.266 163.826 735.266 163.826 735.266 163.826 736.892 162.212 736.892 162.212 736.892 162.212 738.518 161.136 736.35 160.598 735.808 159.522 733.64 157.37 733.098 160.598 732.014 161.136 731.472 160.598 731.472 160.598 731.472 160.598 728.762 160.06 728.762 157.908 730.388 156.293 729.304 155.217 728.219 154.141 727.135 154.141 726.052 154.679 726.052 155.755 725.51 156.293 723.883 156.832 722.799 155.217 721.715 154.679 722.799 151.451 722.799 151.451 722.799 151.451 721.715 150.913 720.631 150.375 719.547 149.837 717.379 153.065 717.379 153.065 717.379 153.065 714.127 150.913 714.127 150.913 714.127 150.913 715.211 148.223 715.211 148.223 715.211 148.223 714.127 147.147 712.501 147.147 711.417 146.609 711.417 146.609 711.417 146.609 711.417 146.609 710.875 147.685 710.875 149.837 708.707 149.299 705.997 148.761 707.081 146.609 707.081 144.995 703.287 143.918 703.287 143.918 703.287 143.918 702.745 144.995 703.287 147.147 701.119 146.609 698.951 146.609 697.867 144.457 698.951 142.304 697.325 142.304 696.241 142.304 695.157 141.766 694.073 142.304 695.157 146.071 692.447 144.995 689.195 145.533 690.821 142.842 690.279 140.69 689.737 140.69 689.737 140.69 689.737 140.69 684.859 138 687.569 144.457 683.775 143.918 681.065 144.995 682.149 141.228 682.149 140.152 680.523 140.152 678.897 139.614 677.813 140.69 677.813 141.228 678.355 142.842 677.271 143.38 676.729 143.38 676.729 143.38 676.187 143.38 676.187 148.761 676.187 148.761 676.187 148.761 691.905 148.761 708.165 152.527 720.631 160.06 737.434 169.207 753.152 186.962 759.656 204.717 773.748 238.076 764.534 277.353 738.518 302.103ZM676.187 327.391C666.431 327.391 656.675 325.777 647.461 322.549 618.734 314.478 592.718 284.886 587.84 255.832 580.794 218.168 595.97 183.734 627.948 162.212 640.957 153.065 658.843 148.761 676.187 148.761 676.187 143.38 676.187 143.38 676.187 143.38 674.019 143.38 672.935 142.304 672.935 140.152 671.309 140.152 667.515 140.152 669.683 142.842 668.599 144.457 666.431 142.842 665.347 143.918 664.805 143.38 665.347 141.766 665.347 140.69 663.721 140.152 662.095 140.69 660.469 141.228 660.469 142.304 661.011 142.842 661.011 143.918 660.469 145.533 658.301 144.457 657.217 145.533 655.591 144.457 657.217 142.842 656.133 142.304 655.049 142.304 653.423 142.304 652.339 142.842 651.797 143.918 652.881 144.995 652.881 145.533 652.339 146.609 650.713 146.609 649.629 147.147 648.545 146.609 648.545 144.995 648.003 143.918 644.209 145.533 644.209 145.533 644.209 145.533 643.125 146.609 645.835 147.685 644.209 148.761 642.041 150.375 639.873 149.299 639.873 146.609 636.079 148.223 636.079 148.223 636.079 148.223 637.163 151.451 637.163 151.451 637.163 151.451 636.079 151.989 634.995 153.065 633.911 153.065 632.827 152.527 632.827 151.451 632.285 150.375 630.659 150.375 629.575 151.451 627.948 152.527 628.491 153.603 629.033 154.141 629.575 155.217 628.491 156.293 627.406 156.832 626.323 157.37 624.154 154.679 624.154 154.679 624.154 154.679 620.902 156.832 620.902 156.832 620.902 156.832 622.528 159.522 622.528 159.522 622.528 159.522 621.444 160.598 620.36 161.136 619.276 161.674 618.734 161.136 618.192 160.598 617.65 159.522 616.024 158.984 615.482 161.136 613.856 161.674 613.856 162.75 614.94 163.288 615.482 163.826 616.024 164.902 614.94 165.44 614.398 165.978 613.314 168.13 611.146 165.978 610.604 164.902 610.062 164.364 609.52 165.44 608.978 165.978 605.726 167.054 608.978 169.207 609.52 170.283 606.81 172.973 606.81 172.973 606.81 172.973 604.642 170.821 604.642 170.821 604.642 170.821 603.016 170.821 602.474 172.973 601.39 174.049 604.1 176.201 604.1 176.201 604.1 176.201 601.39 178.891 601.39 178.891 601.39 178.891 599.764 177.815 598.138 176.201 597.054 178.891 594.886 180.505 598.138 181.582 598.68 182.658 598.138 183.734 597.596 184.81 597.054 185.348 593.802 184.272 593.802 184.272 593.802 184.272 592.718 185.348 591.634 186.424 591.634 187.5 592.176 188.576 593.26 188.576 593.802 189.114 594.344 190.728 592.718 191.266 592.176 192.88 588.924 191.266 588.924 191.266 588.924 191.266 588.382 192.342 587.84 193.957 587.84 195.033 587.84 195.571 588.382 195.571 588.924 196.109 592.176 196.647 588.924 198.799 588.382 200.413 585.672 199.337 585.672 199.337 585.672 199.337 584.588 200.413 584.588 202.027 584.046 203.103 584.588 203.103 584.588 203.103 584.588 203.103 585.672 203.641 587.84 203.641 586.756 205.255 586.756 208.484 584.588 207.408 582.42 206.87 581.336 210.636 581.336 210.636 581.336 210.636 581.878 212.25 584.588 211.174 584.588 213.326 584.046 215.478 581.878 216.554 579.71 215.478 580.252 216.554 579.71 217.63 579.168 219.245 582.42 220.321 582.42 220.321 582.42 220.321 582.42 221.935 581.878 223.011 581.336 224.087 580.252 223.549 579.168 224.087 578.084 224.087 578.626 225.163 577.542 226.239 578.084 227.315 579.168 227.853 580.794 227.853 581.336 228.929 581.878 231.62 580.252 232.696 577.542 232.158 577.542 233.772 577 235.386 578.084 236.462 580.794 235.386 580.794 238.076 581.336 239.69 580.252 241.304 578.626 239.69 577.542 240.766 577.542 242.38 577 243.995 578.084 245.071 579.168 245.071 579.71 244.533 580.794 244.533 581.336 245.609 581.878 246.685 581.336 248.299 580.794 249.913 579.168 248.299 578.084 249.375 578.626 253.141 578.626 253.141 578.626 253.141 581.336 253.141 581.336 253.141 581.336 253.141 582.962 253.679 581.878 255.293 582.962 256.37 582.42 257.984 580.252 256.908 579.71 257.446 579.71 259.06 579.71 260.674 580.252 261.75 581.336 261.212 582.42 261.212 582.962 260.674 584.046 261.75 584.046 263.364 584.588 264.44 584.046 265.516 582.42 265.516 581.336 266.054 582.962 269.821 582.962 269.821 582.962 269.821 584.046 269.821 584.588 269.283 585.672 268.745 586.214 269.821 587.298 270.897 587.298 272.511 586.214 273.587 585.13 273.587 584.588 274.125 585.13 275.201 585.13 276.815 586.214 277.353 588.924 276.815 588.924 276.815 588.924 276.815 590.008 277.891 590.55 278.967 590.55 280.043 590.008 281.12 588.924 281.12 587.84 281.658 588.382 283.272 588.924 284.348 590.008 285.424 591.092 284.886 591.634 284.348 592.718 283.81 593.802 284.886 594.344 286.5 594.886 287.576 592.176 288.652 592.176 288.652 592.176 288.652 592.176 290.266 593.802 291.342 594.344 292.957 597.054 291.342 597.054 291.342 597.054 291.342 598.138 291.88 599.222 292.957 599.222 294.571 598.68 295.647 597.596 295.109 597.054 296.185 599.222 299.413 599.222 299.413 599.222 299.413 600.306 299.951 600.848 298.337 601.932 297.799 603.016 298.337 604.1 299.413 604.642 300.489 602.474 303.179 602.474 303.179 602.474 303.179 605.184 305.87 605.184 305.87 605.184 305.87 607.894 303.717 607.894 303.717 607.894 303.717 610.604 306.946 610.604 306.946 610.604 306.946 608.436 308.56 608.436 308.56 608.436 308.56 608.436 310.174 610.604 310.712 611.146 311.788 612.23 311.25 612.772 309.636 613.856 309.636 617.108 312.326 617.108 312.326 617.108 312.326 615.482 313.94 615.482 313.94 615.482 313.94 613.856 315.016 616.024 315.554 616.566 316.092 618.192 318.783 619.276 315.016 620.36 314.478 623.07 316.63 623.07 316.63 623.07 316.63 623.07 317.707 622.528 318.783 621.444 319.321 622.528 320.935 624.154 321.473 625.238 322.011 627.406 319.321 627.406 319.321 627.406 319.321 630.659 320.935 630.659 320.935 630.659 320.935 629.575 324.163 629.575 324.163 629.575 324.163 630.117 325.239 631.743 325.239 632.827 325.777 633.369 325.239 633.369 324.701 633.911 324.163 634.453 321.473 636.621 324.163 638.247 325.239 637.163 327.929 637.163 327.929 637.163 327.929 640.415 329.543 640.415 329.543 640.415 329.543 642.583 326.315 642.583 326.315 642.583 326.315 645.835 327.929 645.835 327.929 645.835 327.929 644.751 331.158 644.751 331.158 644.751 331.158 648.545 332.234 648.545 332.234 648.545 332.234 650.171 331.158 649.087 328.467 651.255 329.005 653.965 329.005 653.965 331.696 653.423 333.31 654.507 334.386 656.133 333.31 657.217 334.386 658.301 331.158 658.301 331.158 658.301 331.158 659.927 330.62 661.011 331.158 662.095 332.234 661.553 332.772 662.095 333.31 662.095 334.386 662.095 335.462 664.263 335.462 665.889 335.462 665.889 333.848 665.889 332.772 666.973 331.696 669.683 331.696 670.767 333.31 670.225 336 672.935 336 675.645 336 675.103 332.772 675.645 332.772 675.645 332.772 676.187 332.772L676.187 327.391Z" fill="#FFFFFF" fill-rule="evenodd"/><path d="M678 212C665.542 212 665.542 212 665.542 212 665.542 209.822 666.083 207.644 665 205.467 665.542 204.922 665.542 203.289 665 202.744 665.542 190.767 665.542 179.333 665 167.356 665.542 166.267 665.542 165.178 665 163.544 665.542 163 665.542 163 665.542 163 678 163 678 163 678 163L678 212Z" fill="#FFFFFF" fill-rule="evenodd"/><path d="M690 212 681.514 212 681 164.213 681.514 163 690 163 690 212Z" fill="#FFFFFF" fill-rule="evenodd"/><path d="M664 186.919C653.062 188 642.125 187.459 631.188 187.459 629 181.514 636.109 180.432 639.391 177.73 647.594 175.027 656.891 175.027 663.453 168 664 168 664 168 664 168L664 186.919Z" fill="#FFFFFF" fill-rule="evenodd"/><path d="M719 206.625C717.909 208.775 715.727 209.85 713.545 212 702.636 212 702.636 212 702.636 212 698.273 199.1 689 188.35 692.818 172.225 695.545 171.15 698.273 169.538 701 169L719 206.625Z" fill="#FFFFFF" fill-rule="evenodd"/><path d="M579.429 169.8C580 169.8 580 169.8 580 169.8 580 170.36 579.429 170.36 579.429 170.36 579.429 175.96 579.429 175.96 579.429 175.96 579.429 177.64 579.429 177.64 579.429 177.64 580.571 176.52 580.571 176.52 580.571 176.52 582.286 177.64 582.286 179.88 584 181 584 179.32 583.429 177.64 583.429 175.96 581.143 173.72 582.286 170.92 581.714 168.12 581.143 167.56 580 167.56 579.429 168.12L579.429 169.8ZM578.286 169.24C579.429 169.8 579.429 169.8 579.429 169.8 579.429 168.12 579.429 168.12 579.429 168.12 578.857 168.12 578.286 168.68 577.714 169.24 576 167.56 574.286 167 572 167.56 572.571 171.48 577.714 173.16 579.429 175.96 579.429 177.64 579.429 177.64 579.429 177.64 578.857 177.64 578.857 177.64 578.857 177.64 578.857 177.08 578.286 175.96 579.429 175.96 579.429 170.36 579.429 170.36 579.429 170.36 578.857 169.8 578.286 169.8 578.286 169.24Z" fill="#FFFFFF" fill-rule="evenodd"/><path d="M776.8 175C776.4 175 776.4 175 776.4 175 776 173.286 777.6 172.714 777.6 171 778 172.714 777.6 173.857 776.8 175Z" fill="#FFFFFF" fill-rule="evenodd"/><path d="M571.122 175.846C572.732 181.231 578.098 184.462 582.39 187.154 582.927 188.769 582.39 188.769 581.317 188.769 580.781 189.308 580.244 188.769 579.707 189.308 578.634 193.077 584 196.846 579.707 199 578.634 199 577.561 198.462 577.024 197.923 580.781 195.769 578.634 190.385 578.634 187.154 574.341 182.846 570.049 177.462 565.219 174.769 562 174.769 562 174.769 562 174.769 563.073 173.692 565.219 171 567.902 172.615 569.512 173.154 570.049 174.231 571.122 175.846Z" fill="#FFFFFF" fill-rule="evenodd"/><path d="M790.364 176C788.727 176 787.636 175.143 786 174.714 787.636 174.286 790.364 174.714 790.909 173 791.455 173.857 792 175.571 790.364 176Z" fill="#FFFFFF" fill-rule="evenodd"/><path d="M590.455 178.667C588.818 180.267 591 181.867 590.455 184 588.273 180.8 588.273 180.8 588.273 180.8 586.091 182.4 586.091 182.4 586.091 182.4 588.273 180.8 585 178.133 588.818 176.533 589.909 176 591 177.067 590.455 178.667Z" fill="#FFFFFF" fill-rule="evenodd"/><path d="M785.255 176.091C785.809 176.636 785.255 177.182 785.255 177.727 784.702 178.818 784.149 178.818 783.043 178.818 783.043 179.909 783.043 179.909 783.043 179.909 783.596 180.455 784.149 180.455 784.702 179.909 785.809 178.818 785.255 176.636 786.915 176.091 785.255 176.091 784.149 174.455 784.149 173.909 784.149 174.455 783.596 174.455 783.043 175 783.043 177.182 783.043 177.182 783.043 177.182 784.149 177.182 784.702 177.182 785.255 176.091ZM783.043 187C783.043 184.818 783.043 184.818 783.043 184.818 783.596 185.364 783.596 184.818 784.149 184.818 783.596 184.818 783.596 184.273 783.043 183.727 783.043 183.727 783.043 183.727 783.043 183.727 785.809 186.455 785.809 186.455 785.809 186.455 785.255 187 784.149 187 783.043 187ZM783.043 182.091C783.043 181.545 783.043 181.545 783.043 181.545 785.255 181.545 788.021 180.455 790.234 179.909 790.234 180.455 790.787 180.455 790.787 180.455 791.34 179.909 791.34 179.909 791.34 179.909 788.021 177.182 788.021 177.182 788.021 177.182 789.681 177.182 791.34 179.364 793 179.909 791.894 182.091 789.681 181.545 787.468 181.545 786.362 182.091 784.702 181.545 783.043 182.091ZM783.043 178.818C782.489 178.818 781.936 178.273 781.383 178.273 780.83 177.727 780.83 177.727 780.83 177.727 781.383 177.182 781.936 177.182 783.043 177.182 783.043 175 783.043 175 783.043 175 783.043 175 783.043 175 782.489 175.545 776.957 176.636 784.149 171.182 782.489 169 781.383 171.182 779.723 172.818 778.617 173.909 781.936 177.182 776.404 175.545 775.851 177.182 778.617 177.182 778.617 177.182 778.617 177.182 779.723 177.182 779.17 178.273 779.17 179.364 778.064 181 775.851 178.273 774.191 178.273 772.532 177.727 769.766 178.273 768.66 176.091 769.213 176.091 769.213 175.545 769.766 175.545 769.213 175.545 769.213 175.545 769.213 175.545 768.66 176.091 767 175.545 767 177.182 769.213 178.273 771.979 178.273 774.745 178.273 776.957 181 780.83 181 783.043 183.727 783.043 183.727 783.043 183.727 783.043 183.727 781.936 182.091 781.936 182.091 781.936 182.091 782.489 182.091 782.489 182.091 783.043 182.091 783.043 181.545 783.043 181.545 783.043 181.545 781.936 181.545 780.277 181 779.17 179.909 780.277 177.727 781.383 179.364 783.043 179.909 783.043 178.818 783.043 178.818 783.043 178.818ZM783.043 184.818C783.043 187 783.043 187 783.043 187 781.936 186.455 781.383 186.455 780.83 185.909 776.957 182.091 776.957 182.091 776.957 182.091 778.617 182.091 780.83 184.818 783.043 184.818Z" fill="#FFFFFF" fill-rule="evenodd"/><path d="M776 185C775.5 185 774.5 184.375 774 183.75 774.5 183.75 774.5 183.75 774.5 183.75 774.5 181.875 772 182.5 772.5 180 774 181.875 776 182.5 776 185Z" fill="#FFFFFF" fill-rule="evenodd"/><path d="M776.44 186.789C777 187.316 777 188.368 777 189.421 775.88 188.368 774.2 188.368 773.08 186.789 773.08 186.263 773.64 186.263 773.08 185.737 773.08 185.211 773.08 185.211 773.08 185.211 769.72 186.789 768.6 190.474 765.24 191 763.56 189.421 764.12 186.263 763 183.632 764.68 183.632 763 185.737 764.12 186.263 765.24 187.316 765.24 188.368 766.36 189.421 768.04 188.368 770.28 186.263 771.4 185.211 769.72 184.158 766.92 184.158 766.36 182.053 766.36 181 766.36 181 766.36 181 769.16 183.632 773.64 184.684 776.44 186.789Z" fill="#FFFFFF" fill-rule="evenodd"/><path d="M577 191.429C577 192 577 192 577 192 577 190.857 574.083 186.857 571.75 189.714 570 189.714 570 189.714 570 189.714 572.333 188.571 572.917 184 577 185.714L577 191.429Z" fill="#FFFFFF" fill-rule="evenodd"/><path d="M664 189.6C663.449 192 663.449 195 664 196.8 663.449 197.4 663.449 197.4 663.449 197.4 655.735 198 646.367 197.4 637.551 198 637 189 637 189 637 189 645.816 189.6 655.184 189 664 189.6Z" fill="#FFFFFF" fill-rule="evenodd"/><path d="M663.449 198C664 200.286 663.449 202.571 664 204.857 663.449 205.429 663.449 205.429 663.449 205.429 655.184 206 645.816 205.429 637 205.429 637 198 637 198 637 198L663.449 198Z" fill="#FFFFFF" fill-rule="evenodd"/><path d="M663.46 206.533C662.38 208.667 664 210.8 662.92 212.4 663.46 212.933 663.46 212.933 663.46 212.933 661.3 214 656.98 212.933 653.74 213.467 651.04 211.867 647.8 211.333 644.56 209.733 643.48 210.267 643.48 211.867 642.94 212.933 637.54 213.467 637.54 213.467 637.54 213.467 637 206.533 637 206.533 637 206.533 645.64 206.533 654.82 206 663.46 206.533Z" fill="#FFFFFF" fill-rule="evenodd"/><path d="M649.364 220.595C628.091 287.32 628.091 287.32 628.091 287.32 628.091 287.32 628.091 287.863 627.545 287.863 629.727 289.49 631.909 290.033 633.545 291.118 634.091 292.745 633 293.83 632.455 294.915 626.455 296 620.455 293.83 615 291.118 616.091 288.948 616.636 286.778 618.273 284.608 619.364 285.693 621 285.693 622.636 286.235 628.636 269.961 628.636 269.961 628.636 269.961 646.636 213 646.636 213 646.636 213 651 214.627 651 214.627 651 214.627L649.364 220.595Z" fill="#FFFFFF" fill-rule="evenodd"/><path d="M622.385 215.538C622.385 215.538 622.923 215 622.923 215 624 221.462 622.923 229 624 235.462 623.462 235.462 623.462 236 623.462 236 618.615 233.846 614.308 231.154 610 228.462 610 215 610 215 610 215 614.308 215 618.615 215 622.385 215.538Z" fill="#FFFFFF" fill-rule="evenodd"/><path d="M643 215.54C634.273 242 634.273 242 634.273 242 631.545 240.92 628.818 239.3 626.091 237.68 625.545 231.2 626.091 224.18 626.091 217.7 627.182 217.16 625 215.54 626.636 215 632.091 215 637.545 215 643 215.54Z" fill="#FFFFFF" fill-rule="evenodd"/><path d="M705.451 240.412C701.062 243.059 697.221 246.765 692.832 251 648.938 250.471 648.938 250.471 648.938 250.471 644 247.294 644 247.294 644 247.294 647.841 236.706 650.035 225.588 654.425 215 706 215.529 706 215.529 706 215.529L705.451 240.412Z" fill="#FFFFFF" fill-rule="evenodd"/><path d="M714 234.262C713 235.357 711 237 709.5 236.452 709 235.357 710.5 234.81 709.5 234.262 709.5 233.714 710 233.714 710 233.167 709.5 233.167 709.5 233.167 709.5 233.167 710 227.143 710 220.571 709.5 215.643 710.5 214 712 215.095 713.5 214.548L714 234.262Z" fill="#FFFFFF" fill-rule="evenodd"/><path d="M799 259.976C798.447 260.512 799 262.122 797.895 262.659 793.474 259.976 788.5 262.659 784.079 263.195 782.974 264.268 782.974 264.268 782.974 264.268 786.289 264.805 780.763 269.098 785.737 269.098 789.053 269.634 792.368 271.244 796.237 272.317 795.132 274.463 795.132 274.463 795.132 274.463 790.711 273.927 786.842 271.78 782.421 271.244 782.421 272.317 781.868 273.39 781.316 275 780.211 275 779.658 274.463 779.105 273.927 782.421 269.098 778 257.293 788.5 259.439 789.053 259.439 789.053 259.439 789.053 259.439 787.395 256.756 781.316 257.293 784.079 253 789.053 255.146 792.921 259.976 799 259.976Z" fill="#FFFFFF" fill-rule="evenodd"/><path d="M744.661 239.05C744.119 239.05 744.119 239.05 744.119 239.05 744.119 253.571 744.119 253.571 744.119 253.571 746.288 253.034 746.288 258.412 746.288 261.101 745.746 261.639 744.661 262.176 744.119 262.176 744.119 281 744.119 281 744.119 281 744.661 281 745.203 281 745.203 280.462 745.203 267.017 745.203 267.017 745.203 267.017 746.288 265.941 747.373 265.941 748.458 265.403 749 250.882 749 250.882 749 250.882 745.203 248.193 745.203 248.193 745.203 248.193 744.119 244.966 746.831 243.353 749 242.277 749 227.756 749 227.756 749 227.756 747.373 226.681 745.203 226.143 745.203 223.992 747.373 222.916 746.288 219.151 746.288 217 744.119 217 744.119 217 744.119 217 744.119 230.445 744.119 230.445 744.119 230.445 744.661 230.445 745.746 230.983 746.288 231.521 745.746 234.21 746.831 237.975 744.661 239.05ZM744.119 239.05C741.949 239.05 741.949 239.05 741.949 239.05 741.949 236.899 742.492 234.21 741.949 232.059 741.949 231.521 743.034 230.445 744.119 230.445 744.119 217 744.119 217 744.119 217 717 217 717 217 717 217 717 232.597 717 232.597 717 232.597 724.593 227.756 733.271 225.605 741.949 223.992 743.576 226.143 739.78 226.681 738.695 228.294 739.78 232.597 739.78 237.437 738.695 241.74 739.237 243.891 741.949 242.277 742.492 244.429 742.492 246.042 743.034 247.655 741.949 248.731 737.068 250.345 740.322 256.26 738.695 260.025 739.78 260.563 739.78 262.176 738.695 262.714 739.237 263.252 739.237 263.252 739.237 263.252 739.237 263.79 739.78 264.328 738.695 264.866 739.78 265.941 741.407 265.941 742.492 267.017 742.492 281 742.492 281 742.492 281 743.034 281 743.576 281 744.119 281 744.119 262.176 744.119 262.176 744.119 262.176 743.034 262.176 742.492 262.176 741.949 261.639 741.949 260.025 742.492 256.798 741.949 254.647 742.492 254.109 743.576 253.571 744.119 253.571L744.119 239.05Z" fill="#FFFFFF" fill-rule="evenodd"/><rect x="653" y="256" width="41" height="6" fill="#FFFFFF"/><path d="M694.245 265C696.434 269.48 703 272.28 700.264 279 645 279 645 279 645 279 645 277.88 645 275.08 645 272.84 647.736 270.6 648.83 267.24 651.566 265L694.245 265Z" fill="#FFFFFF" fill-rule="evenodd"/><path d="M571.273 267C572.909 270 572.909 273 574 276 572.364 276.5 571.273 276 570.727 274.5 570.182 273 570.182 271.5 569.091 270 568.545 270.5 566.909 270.5 566.364 271.5 566.364 273.5 568.545 276 566.909 277 563.091 278 565.273 268.5 559.818 273 559.273 276 564.182 279 559.818 280 559.273 280 559.273 280 559.273 280 558.727 277 556.545 275 556 271.5 560.909 270 566.364 269 571.273 267Z" fill="#FFFFFF" fill-rule="evenodd"/><path d="M793 280C791.966 282 791.966 282 791.966 282 787.31 281 782.655 279 778 277 778.517 275 778.517 275 778.517 275 783.69 276.5 787.828 278.5 793 280Z" fill="#FFFFFF" fill-rule="evenodd"/><path d="M576 280.2C570.857 281.267 566.286 283.933 560.571 285 560 283.4 560 283.4 560 283.4 574.857 277 574.857 277 574.857 277 576 277.533 576 278.6 576 280.2Z" fill="#FFFFFF" fill-rule="evenodd"/><path d="M780.677 280.52C780.677 283.64 774.645 282.6 776.29 286.76 780.129 289.36 781.226 282.08 785.065 282.08 786.71 283.12 789.452 283.64 790 286.24 790 288.84 789.452 291.44 786.71 292.48 785.065 293 783.968 292.48 782.323 292.48 782.323 289.36 788.355 290.4 787.258 286.76 785.613 285.2 785.613 285.2 785.613 285.2 782.871 286.76 780.677 291.44 776.29 289.36 773.548 288.84 773 285.72 774.097 283.64 774.645 282.6 775.194 281.04 776.839 280.52 777.935 280.52 779.581 280 780.677 280.52Z" fill="#FFFFFF" fill-rule="evenodd"/><path d="M706.921 283C708 288.161 707.46 293.839 707.46 299 640 299 640 299 640 299 640.54 283 640.54 283 640.54 283L706.921 283Z" fill="#FFFFFF" fill-rule="evenodd"/><path d="M568.545 287.222C567.455 288.333 566.364 288.333 565.273 289.444 565.818 290 565.818 291.111 566.909 291.111 570.727 289.444 575.091 288.333 578.909 286.111 580 288.333 580 288.333 580 288.333 568 294.444 568 294.444 568 294.444 565.818 295 563.636 292.778 563.091 291.111 562 288.333 564.727 286.111 566.909 285 568 285 568 286.667 568.545 287.222Z" fill="#FFFFFF" fill-rule="evenodd"/><path d="M583 293C578.034 295 573.621 298 568.655 300 567 299 568.103 297 569.207 297 573.069 294.5 577.483 293 581.345 291L583 293Z" fill="#FFFFFF" fill-rule="evenodd"/><path d="M774.057 299.067C774.057 298.533 773.514 298.533 773.514 298.533 773.514 302.267 773.514 302.267 773.514 302.267 775.686 303.333 777.857 304.933 780.571 306 780.571 304.933 781.657 304.4 781.114 303.333 779.486 302.267 777.314 302.267 776.229 300.133 778.943 297.467 778.943 297.467 778.943 297.467 781.114 296.933 782.743 299.067 784.371 299.067 786 296.933 786 296.933 786 296.933 781.114 294.8 781.114 294.8 781.114 294.8 780.029 293.733 777.857 295.333 777.857 293.2 777.314 291.6 775.686 290 773.514 290.533 773.514 293.733 773.514 293.733 773.514 293.733 774.057 293.2 775.143 293.733 775.686 294.8 776.229 296.4 774.057 297.467 774.057 299.067ZM773.514 298.533C772.429 298 771.886 297.467 770.8 296.933 771.343 295.867 772.429 294.267 773.514 293.733 773.514 290.533 773.514 290.533 773.514 290.533 772.971 290.533 772.971 290.533 772.429 290.533 769.171 291.6 768.629 295.333 767 298 769.171 299.6 771.343 300.667 773.514 302.267L773.514 298.533Z" fill="#FFFFFF" fill-rule="evenodd"/><path d="M584.657 297.656C583.029 300.312 580.857 303.5 579.229 306.688 579.229 307.219 579.229 307.219 579.229 307.219 587.371 301.906 587.371 301.906 587.371 301.906 589 303.5 589 303.5 589 303.5 584.657 306.688 580.857 309.875 575.971 312 575.429 311.469 575.429 310.938 574.886 310.406 576.514 307.219 578.143 304.031 580.314 300.844 579.771 300.312 579.771 300.312 579.771 300.312 576.514 301.375 574.343 304.562 571.086 305.625 570 304.031 570 304.031 570 304.031 574.343 301.375 578.686 297.125 583.571 295L584.657 297.656Z" fill="#FFFFFF" fill-rule="evenodd"/><path d="M767.412 301.097C766.353 303.29 764.765 304.935 763.706 306.581 764.235 307.677 765.294 308.226 766.353 308.226 767.941 307.129 769 302.194 771.647 304.935 772.176 306.581 769.529 308.226 768.471 310.419 771.118 312.613 771.118 312.613 771.118 312.613 773.765 311.516 773.765 307.677 776.412 307.677 776.941 308.226 778 308.774 777.471 309.871 771.647 317 771.647 317 771.647 317 760 307.677 760 307.677 760 307.677 761.059 304.935 763.176 302.194 765.294 300 766.353 300 766.882 300 767.412 301.097Z" fill="#FFFFFF" fill-rule="evenodd"/><path d="M595.484 309.938C596 311.625 596 313.875 595.484 315.562 594.452 316.688 594.452 316.688 594.452 316.688 590.839 315 595.484 311.062 591.871 309.938 588.258 308.812 586.194 311.625 584.645 313.875 584.129 315.562 583.613 316.688 584.645 317.812 585.677 319.5 587.226 319.5 588.774 318.938 589.806 317.25 585.677 316.125 588.774 314.438 589.806 315 591.355 317.25 592.387 318.375 590.839 320.062 588.774 322.875 586.194 324 585.677 324 585.161 323.438 585.677 322.312 586.194 321.75 586.194 321.75 586.194 321.75 584.129 321.75 582.065 320.625 581.548 318.375 580 314.438 583.097 310.5 586.194 308.25 588.774 306 593.935 306 595.484 309.938Z" fill="#FFFFFF" fill-rule="evenodd"/><path d="M767 321.931C767 322.966 765.897 323.483 765.345 324 760.931 321.931 755.414 319.862 751 316.759 753.207 314.69 753.207 314.69 753.207 314.69 762.586 320.379 762.586 320.379 762.586 320.379 763.138 319.862 763.138 319.862 763.138 319.862 761.483 316.759 758.172 314.172 757.069 310.552 758.724 309 758.724 309 758.724 309L767 321.931Z" fill="#FFFFFF" fill-rule="evenodd"/><path d="M760 329.44C759.455 329.96 758.909 331 757.818 330.48 748 319.56 748 319.56 748 319.56 749.636 318 749.636 318 749.636 318 752.909 321.12 757.273 325.28 760 329.44Z" fill="#FFFFFF" fill-rule="evenodd"/><path d="M756 332.647C754.364 334.235 754.364 334.235 754.364 334.235 750.545 333.176 747.273 330.529 743.455 330 746.182 332.647 747.818 335.294 749.455 337.941 748.364 339 748.364 339 748.364 339 744.545 335.824 741.273 331.059 738 326.824 741.818 323.647 745.636 328.941 749.455 330 750 330 750 330 750 330 750 330 750 330 750 330 749.455 326.294 742.909 324.176 746.182 321 749.455 324.176 753.273 328.412 756 332.647Z" fill="#FFFFFF" fill-rule="evenodd"/><path d="M742.909 342.647C741.818 344.324 740.182 345.441 738 345.441 734.727 346 733.091 342.088 732 340.412 730.909 337.618 726 334.265 729.818 332.029 732.545 334.824 734.182 339.853 737.455 342.647 739.091 343.206 739.636 342.088 740.727 340.971 739.636 337.059 736.364 333.147 734.727 329.235 735.818 328.676 737.455 327 738 329.235 740.182 333.706 744 337.618 742.909 342.647Z" fill="#FFFFFF" fill-rule="evenodd"/><path d="M624 333.556C621.308 337.185 620.231 341.852 616.462 344.963 615.385 346 613.769 346 612.692 344.963 610 343.926 610.538 341.333 611.077 339.259 611.615 338.741 611.615 338.222 612.154 337.704 613.231 338.222 613.769 338.741 614.308 339.259 613.231 339.778 613.231 341.333 613.231 342.37 613.769 342.889 614.308 342.889 614.846 342.889 618.077 339.778 619.692 336.148 621.846 332.519 622.923 332 623.462 333.556 624 333.556Z" fill="#FFFFFF" fill-rule="evenodd"/><path d="M629 336C627.333 340.5 624.556 344.5 622.333 349 621.222 348.5 619 349 620.111 347 626.778 335 626.778 335 626.778 335 627.889 335 628.444 335.5 629 336Z" fill="#FFFFFF" fill-rule="evenodd"/><path d="M704.846 346.765C705.923 348.882 702.692 347.294 702.154 348.353 701.615 346.765 700 345.706 698.385 346.235 697.308 347.294 696.231 348.353 696.231 349.941 696.231 353.118 696.769 356.294 700 357.353 701.615 357.353 703.231 355.765 703.769 354.176 703.769 353.647 703.231 353.118 702.692 353.118 702.154 353.647 701.615 353.118 700.538 353.118 700 352.588 700.538 351.529 700.538 351 705.385 349.941 705.385 349.941 705.385 349.941 706.462 352.588 706.462 355.235 707 357.882 705.923 358.941 704.846 357.882 704.308 357.353 703.769 359.471 701.615 359.471 699.462 360 695.692 359.471 694.077 354.706 693 351.529 693 348.882 693.538 346.765 695.154 345.176 697.846 342 702.692 343.588 704.846 346.765Z" fill="#FFFFFF" fill-rule="evenodd"/><path d="M665.429 345.645C666 346.742 664.857 347.839 664.857 348.387 664.286 347.839 662.571 348.935 662 347.839 660.857 348.387 660.857 348.387 660.857 348.387 659.143 360.452 659.143 360.452 659.143 360.452 658.571 361 657.429 360.452 656.857 361 656.286 359.903 656.286 359.903 656.286 359.903 658 347.839 658 347.839 658 347.839 656.857 347.29 655.714 346.742 654 346.742 654.571 344 654.571 344 654.571 344L665.429 345.645Z" fill="#FFFFFF" fill-rule="evenodd"/><path d="M691 360.903C690.5 362 689.5 361.452 688.5 361.452 686.5 358.161 685.5 354.871 683.5 351.581 682 354.871 684 358.161 683.5 362 681 362 681 362 681 362 680 346.645 680 346.645 680 346.645 680.5 345.548 681.5 346.097 682.5 346.097 688 355.419 688 355.419 688 355.419 688.5 352.129 687.5 349.387 687.5 346.097 688 345 689 345.548 689.5 345L691 360.903Z" fill="#FFFFFF" fill-rule="evenodd"/><path d="M647.154 354.613C646.615 355.161 646.077 355.161 645.538 355.71 645.538 359 645.538 359 645.538 359 647.154 358.452 648.231 357.903 649.308 356.806 650.923 354.613 652 352.419 652 349.677 652 348.032 652 348.032 652 348.032 652 346.935 652 346.387 651.462 345.29 650.385 343.097 647.692 342 645.538 342 645.538 345.29 645.538 345.29 645.538 345.29 647.692 344.742 648.231 346.387 648.769 347.484 649.308 350.226 648.231 352.419 647.154 354.613ZM645.538 355.71C644.462 355.71 643.923 355.71 642.846 354.613 641.769 352.968 642.308 350.226 642.308 348.581 643.385 347.484 643.923 345.839 645.538 345.29 645.538 345.29 645.538 345.29 645.538 345.29 645.538 342 645.538 342 645.538 342 644.462 342 643.923 342 642.846 342.548 639.615 345.839 638 350.774 639.615 355.161 640.692 357.355 642.846 358.452 645 359 645 359 645.538 359 645.538 359L645.538 355.71Z" fill="#FFFFFF" fill-rule="evenodd"/><path d="M672.84 358.903C672.84 358.903 672.28 358.903 671.72 358.903 671.72 362 671.72 362 671.72 362 673.96 361.484 675.64 360.968 676.76 359.419 678.44 356.323 679 352.194 677.88 349.097 676.2 347.032 674.52 346 671.72 346 671.72 349.097 671.72 349.097 671.72 349.097 673.4 349.097 674.52 350.129 675.08 351.677 675.08 354.258 675.64 357.355 672.84 358.903ZM671.72 358.903C670.04 358.903 668.92 357.355 668.36 355.806 668.36 353.742 667.8 350.645 670.6 349.097 671.16 349.097 671.16 349.097 671.72 349.097 671.72 346 671.72 346 671.72 346 671.16 346 670.6 346 670.04 346 666.68 347.548 665 350.645 665 353.742 665.56 356.839 666.12 359.935 668.92 361.484 670.04 361.484 670.6 362 671.72 362L671.72 358.903Z" fill="#FFFFFF" fill-rule="evenodd"/><path d="M633.208 347.031C632.667 347.031 632.125 347.031 632.125 347.031 632.125 350.75 632.125 350.75 632.125 350.75 632.667 352.344 632.125 355 634.833 354.469 636.458 340.656 636.458 340.656 636.458 340.656 637 340.125 637 339.594 637 339.594 637 339.594 637 339.594 637 339.594 637 338 634.833 338 633.208 338 632.125 339.594 632.125 339.594 632.125 339.594 632.125 344.375 632.125 344.375 632.125 344.375 633.208 342.781 633.208 342.781 633.208 342.781L633.208 347.031ZM632.125 347.031C631.583 347.031 631.042 346.5 630.5 346.5 632.125 344.375 632.125 344.375 632.125 344.375 632.125 339.594 632.125 339.594 632.125 339.594 624 350.219 624 350.219 624 350.219 624 350.75 624 350.75 624 350.75 626.167 353.406 626.708 349.688 628.875 348.625 628.875 349.156 628.875 349.156 628.875 349.156 631.042 348.625 631.583 349.688 632.125 350.75L632.125 347.031Z" fill="#FFFFFF" fill-rule="evenodd"/><path d="M566.5 262.125C565.938 262.667 565.375 262.667 565.375 262.667 565.375 265.375 565.375 265.375 565.375 265.375 565.375 265.375 565.375 265.375 565.375 265.375 567.062 264.833 568.75 265.375 569.875 263.75 571 259.958 568.75 257.25 568.75 254 567.625 254.542 566.5 255.083 565.375 255.083 565.375 257.792 565.375 257.792 565.375 257.792 565.375 257.792 565.938 257.792 566.5 257.792 565.938 259.417 567.625 261.042 566.5 262.125ZM565.375 262.667C564.25 262.125 563.688 260.5 563.688 259.417 563.125 258.333 564.25 257.792 565.375 257.792 565.375 255.083 565.375 255.083 565.375 255.083 563.125 255.625 560.875 256.167 558.625 256.167 558.625 259.417 558.625 259.417 558.625 259.417 559.188 259.417 559.75 259.417 560.312 258.875 559.75 261.042 561.438 262.125 560.312 263.75 559.75 264.292 559.188 264.292 558.625 264.292 558.625 267 558.625 267 558.625 267 558.625 267 558.625 267 559.188 267 560.312 267 562.562 266.458 563.125 264.833 565.375 265.375 565.375 265.375 565.375 265.375L565.375 262.667ZM558.625 256.167C558.625 259.417 558.625 259.417 558.625 259.417 557.5 259.417 556.375 259.417 556.375 260.5 556.938 262.125 557.5 263.75 558.625 264.292 558.625 267 558.625 267 558.625 267 556.938 267 555.25 266.458 554.125 264.833 553 257.792 553 257.792 553 257.792 553.562 257.25 553.562 257.25 553.562 257.25 555.25 256.708 556.938 256.708 558.625 256.167Z" fill="#FFFFFF" fill-rule="evenodd"/><text fill="#FFFFFF" font-family="Calibri,Calibri_MSFontService,Arial" font-weight="700" font-size="16" transform="translate(656.112 318)">1896</text></g></svg>